<svg xmlns="http://www.w3.org/2000/svg" version="1.1" viewBox="-5.0 -10.0 110.0 135.0">
 <path d="m96.297 51.051c-0.45312 0.23438-7.6055 3.9727-10.734 5.6094-0.60938 0.31641-1.5859 0.625-2.2656 0.35156-0.67578-0.26953-0.042969-0.85938 0.33594-1.0586 0.45313-0.23438 5.5742-2.9102 7.6836-4.0156h-16.59c-1.4492 0-2.9609 0.125-4.4023-0.054688-4.3477-0.54297-5.3477-4.7266-5.5898-8.4453-0.13672-2.0703-0.074219-4.1445-0.16016-6.2148-0.046875-1.1172-0.046875-2.293-0.44922-3.3516-0.13672-0.36328-0.26562-0.99219-0.75391-0.83984-0.30078 0.09375-0.53906 0.625-0.68359 0.85938-0.35156 0.5625-0.63281 1.1602-0.91406 1.7578-1.7227 3.6289-2.9375 7.5078-4.1562 11.324-1.4688 4.6055-2.8398 9.2383-4.3164 13.84-1.2422 3.875-2.4922 7.8086-4.2461 11.488-0.94922 1.9922-2.4297 5.082-4.9961 5.2539-2.332 0.15625-2.6211-2.3086-2.7305-4.0547-0.1875-3.0547 0.13281-6.1562 0.42969-9.1914 0.85156-8.6328 2.1875-17.211 3.2695-25.816 0.47266-3.7383 0.92969-7.4844 1.1602-11.242 0.082031-1.3086 0.13281-2.6211 0.082031-3.9297-0.019531-0.48437-0.011719-0.60937-0.12891-1.1953 0-0.007812-0.054687 0.027344-0.078125 0.058594-1.082 1.543-1.793 3.3906-2.4805 5.1289-1.75 4.4141-3.1133 8.9766-4.5195 13.508-0.53906 1.7344-0.98438 3.6055-1.8164 5.2266-1.1992 2.332-3.2266 4.1523-5.6484 5.1484-2.1367 0.87891-4.082 0.73438-6.3555 0.73438h-20.754c-2.1797 0-1.6328-2.4805 0.25391-2.4805h2.1094 22.32c0.59375-0.17188 1.0586-0.29297 1.6016-0.55469 2.2031-1.0742 3.4023-2.9922 4.1641-5.25 1.375-4.0898 2.5352-8.25 3.9336-12.336 0.76562-2.2422 1.5742-4.4805 2.5469-6.6406 0.6875-1.5195 1.4492-3.1523 2.6172-4.3672 1.8477-1.918 4.8789-1.6836 5.3594 1.1484 0.4375 2.582 0.11719 5.3594-0.10938 7.9453-0.33984 3.9297-0.83984 7.8438-1.3516 11.754-1.1133 8.5156-2.457 17.027-3.1406 25.59-0.19141 2.4141-0.48828 5.1797-0.089844 7.4102 0.019531-0.023438 0.039063-0.046876 0.054687-0.074219 1.8008-2.6406 2.9844-6.3672 4.0703-9.5234 1.5469-4.5039 2.9141-9.0703 4.3203-13.617 1.3125-4.2461 2.6172-8.5156 4.2305-12.66 0.94531-2.4258 2.0195-5.582 4.1602-7.2461 1.0703-0.83203 2.4453-1.0938 3.707-0.53906 1.4531 0.63672 2.0703 2.1523 2.332 3.6211 0.69531 3.9023-0.10938 7.957 0.8125 11.832 0.33984 1.4219 0.99219 3.0117 2.5469 3.418 1.2539 0.32812 2.7578 0.097656 4.0391 0.097656h15.324c-2.3359-1.2188-4.6719-2.4414-7.0078-3.6602-0.63672-0.33203-0.10156-0.81641 0.33594-1.0586 0.5625-0.3125 1.6406-0.67969 2.2656-0.35156 0.45312 0.23438 7.6055 3.9727 10.734 5.6094 0.63672 0.32422 0.097656 0.82812-0.33203 1.0547zm-41.422-16.41c0.23828 0.089844 0.58984 0.066406 0.83203 0.023437 0.48828-0.085937 1.25-0.27344 1.4922-0.77344 0.83594-1.75 2.0469-4.3281 3.9102-5.2461 0.61719-0.30469 1.3438-0.19141 1.9531-0.65234 0.12891-0.097657 0.33203-0.26563 0.28125-0.45703s-0.32031-0.22656-0.47266-0.25391c-0.79297-0.12891-1.7266 0.13281-2.4492 0.42969-1.4609 0.59766-2.6445 1.6602-3.5938 2.9023-0.86719 1.1328-1.5703 2.3906-2.1836 3.6719-0.085937 0.17969 0.10156 0.30859 0.23047 0.35547zm-1.5195 34.195c-0.29688 1.1016-0.69531 2.1797-1.1289 3.2344-0.83594 2.0391-1.8555 4.0742-3.3008 5.7539-0.375 0.4375-0.86328 0.93359-1.2227 1.2148-0.32812 0.25781-0.67578 0.49219-1.0547 0.67188 0.042968-0.019532-1.4844 0.51172-1.0117 1.0391 0.38672 0.42969 1.6875 0.027344 2.0898-0.12891 4.543-1.7578 6.9336-6.6523 8.4062-11.004 0.14844-0.43359 0.28906-0.86719 0.41016-1.3086 0.21484-0.79688-2.9492-0.35547-3.1875 0.52734zm3.8789-4.5547c-0.15234-0.042969-0.30469-0.0625-0.45703-0.054688-0.19141-0.007812-0.38672 0.003907-0.57422 0.042969-0.41797 0.074219-0.84766 0.1875-1.2266 0.39062-0.10156 0.058594-0.19922 0.12109-0.30078 0.17969-0.14844 0.09375-0.26562 0.21484-0.34375 0.37109-0.17578 0.54297-0.57812 1.7812-0.60547 1.8555-0.070312 0.22266 0.09375 0.34375 0.28125 0.40625 0.15234 0.042969 0.30469 0.0625 0.45703 0.054688 0.19141 0.007812 0.38672-0.003906 0.57422-0.042969 0.41797-0.074219 0.84766-0.1875 1.2266-0.39062 0.10156-0.058594 0.19922-0.12109 0.30078-0.17969 0.14844-0.09375 0.26562-0.21484 0.34375-0.37109 0.17578-0.54297 0.57812-1.7812 0.60547-1.8555 0.074219-0.21875-0.09375-0.33984-0.28125-0.40625zm-20.562-12.914c-0.55859-0.1875-1.4453 0-1.8203 0.48828-1.4961 1.9297-4.7656 2.3906-7.0156 2.332-0.60938-0.015625-1.3867 0.17188-1.6836 0.76953-0.26953 0.53906 0.23438 0.99609 0.76562 1.0117 2.5859 0.066406 5.2695-0.28906 7.5742-1.5352 0.88672-0.48047 1.8672-1.082 2.4961-1.8945 0.35156-0.45312 0.26562-0.98047-0.31641-1.1719z"/>
<text x="0.0" y="117.5" font-size="5.0" font-weight="bold" font-family="Arbeit Regular, Helvetica, Arial-Unicode, Arial, Sans-serif" fill="#000000">Created by iconcheese</text><text x="0.0" y="122.5" font-size="5.0" font-weight="bold" font-family="Arbeit Regular, Helvetica, Arial-Unicode, Arial, Sans-serif" fill="#000000">from Noun Project</text></svg>